<svg width="100%" height="100%" viewBox="0 0 150 150" fill="none" xmlns="http://www.w3.org/2000/svg">
    <circle cx="75" cy="75" r="75" fill="#D9D9D9" />
    <path
        d="M40 101.25C40 96.6087 41.8437 92.1575 45.1256 88.8756C48.4075 85.5937 52.8587 83.75 57.5 83.75H92.5C97.1413 83.75 101.592 85.5937 104.874 88.8756C108.156 92.1575 110 96.6087 110 101.25C110 103.571 109.078 105.796 107.437 107.437C105.796 109.078 103.571 110 101.25 110H48.75C46.4294 110 44.2038 109.078 42.5628 107.437C40.9219 105.796 40 103.571 40 101.25Z"
        stroke="#666666" stroke-width="5" stroke-linejoin="round" />
    <path
        d="M75 66.25C82.2487 66.25 88.125 60.3737 88.125 53.125C88.125 45.8763 82.2487 40 75 40C67.7513 40 61.875 45.8763 61.875 53.125C61.875 60.3737 67.7513 66.25 75 66.25Z"
        stroke="#666666" stroke-width="5" />
</svg>
    